<svg xmlns="http://www.w3.org/2000/svg" width="142" height="142" viewBox="0 0 142 142">
  <g id="Grupo_352" data-name="Grupo 352" transform="translate(0.316 0.316)">
    <circle id="Ellipse_4" data-name="Ellipse 4" cx="71" cy="71" r="71" transform="translate(-0.316 -0.316)" fill="#f9b959"/>
    <path id="info" d="M2.532,72.157a1,1,0,0,1-1-1V26.033a1,1,0,0,1,1-1h9.78a1,1,0,0,1,1,1V71.156a1,1,0,0,1-1,1ZM0,6.6a6.657,6.657,0,1,1,6.656,6.6A6.627,6.627,0,0,1,0,6.6Z" transform="translate(63.261 33.869)" fill="#fff"/>
  </g>
</svg>
