<svg id="Grupo_335" data-name="Grupo 335" xmlns="http://www.w3.org/2000/svg" width="139.834" height="139.834" viewBox="0 0 139.834 139.834">
  <defs>
    <style>
      .cls-1 {
        fill: #fff;
      }
    </style>
  </defs>
  <g id="virus">
    <g id="Grupo_172" data-name="Grupo 172" transform="translate(34.959 34.959)">
      <path id="Caminho_108" data-name="Caminho 108" class="cls-1" d="M38.045,70.091A32.045,32.045,0,1,1,70.091,38.045,32.079,32.079,0,0,1,38.045,70.091Zm0-58.264A26.219,26.219,0,1,0,64.264,38.045,26.251,26.251,0,0,0,38.045,11.826Z" transform="translate(-6 -6)"/>
    </g>
    <g id="Grupo_173" data-name="Grupo 173" transform="translate(46.611 116.529)">
      <path id="Caminho_109" data-name="Caminho 109" class="cls-1" d="M19.653,43.306A11.653,11.653,0,1,1,31.306,31.653,11.665,11.665,0,0,1,19.653,43.306Zm0-17.479a5.826,5.826,0,1,0,5.826,5.826A5.836,5.836,0,0,0,19.653,25.826Z" transform="translate(-8 -20)"/>
    </g>
    <g id="Grupo_174" data-name="Grupo 174" transform="translate(5.826 29.132)">
      <path id="Caminho_110" data-name="Caminho 110" class="cls-1" d="M12.653,28.306A11.653,11.653,0,1,1,24.306,16.653,11.665,11.665,0,0,1,12.653,28.306Zm0-17.479a5.826,5.826,0,1,0,5.826,5.826A5.836,5.836,0,0,0,12.653,10.826Z" transform="translate(-1 -5)"/>
    </g>
    <g id="Grupo_175" data-name="Grupo 175" transform="translate(0 87.396)">
      <path id="Caminho_111" data-name="Caminho 111" class="cls-1" d="M14.566,44.132A14.566,14.566,0,1,1,29.132,29.566,14.586,14.586,0,0,1,14.566,44.132Zm0-23.306a8.74,8.74,0,1,0,8.74,8.74A8.75,8.75,0,0,0,14.566,20.826Z" transform="translate(0 -15)"/>
    </g>
    <g id="Grupo_176" data-name="Grupo 176" transform="translate(104.876)">
      <path id="Caminho_112" data-name="Caminho 112" class="cls-1" d="M35.479,34.959A17.479,17.479,0,1,1,52.959,17.479,17.5,17.5,0,0,1,35.479,34.959Zm0-29.132A11.653,11.653,0,1,0,47.132,17.479,11.665,11.665,0,0,0,35.479,5.826Z" transform="translate(-18)"/>
    </g>
    <g id="Grupo_177" data-name="Grupo 177" transform="translate(99.049 99.049)">
      <path id="Caminho_113" data-name="Caminho 113" class="cls-1" d="M37.392,57.785A20.392,20.392,0,1,1,57.785,37.392,20.415,20.415,0,0,1,37.392,57.785Zm0-34.959A14.566,14.566,0,1,0,51.959,37.392,14.586,14.586,0,0,0,37.392,22.826Z" transform="translate(-17 -17)"/>
    </g>
    <g id="Grupo_178" data-name="Grupo 178" transform="translate(52.438 5.826)">
      <path id="Caminho_114" data-name="Caminho 114" class="cls-1" d="M17.74,18.479a8.74,8.74,0,1,1,8.74-8.74A8.75,8.75,0,0,1,17.74,18.479Zm0-11.653A2.913,2.913,0,1,0,20.653,9.74,2.914,2.914,0,0,0,17.74,6.826Z" transform="translate(-9 -1)"/>
    </g>
    <g id="Grupo_179" data-name="Grupo 179" transform="translate(84.715 84.721)">
      <path id="Caminho_115" data-name="Caminho 115" class="cls-1" d="M36.915,39.823a2.926,2.926,0,0,1-2.063-.851l-19.46-19.46a2.913,2.913,0,1,1,4.119-4.119l19.46,19.46a2.91,2.91,0,0,1-2.057,4.97Z" transform="translate(-14.54 -14.541)"/>
    </g>
    <g id="Grupo_180" data-name="Grupo 180" transform="translate(85.765 24.294)">
      <path id="Caminho_116" data-name="Caminho 116" class="cls-1" d="M17.633,30.391a2.913,2.913,0,0,1-1.94-5.086L38.533,4.912a2.913,2.913,0,1,1,3.88,4.347L19.574,29.651a2.9,2.9,0,0,1-1.94.74Z" transform="translate(-14.72 -4.17)"/>
    </g>
    <g id="Grupo_181" data-name="Grupo 181" transform="translate(56.57 92.874)">
      <path id="Caminho_117" data-name="Caminho 117" class="cls-1" d="M12.627,45.537a2.516,2.516,0,0,1-.414-.029,2.92,2.92,0,0,1-2.476-3.292l3.379-23.772a2.913,2.913,0,1,1,5.768.816L15.506,43.032a2.9,2.9,0,0,1-2.878,2.505Z" transform="translate(-9.709 -15.94)"/>
    </g>
    <g id="Grupo_182" data-name="Grupo 182" transform="translate(58.905 17.423)">
      <path id="Caminho_118" data-name="Caminho 118" class="cls-1" d="M15,26.585A2.921,2.921,0,0,1,12.109,24L10.128,6.228a2.914,2.914,0,0,1,5.791-.653L17.9,23.346a2.922,2.922,0,0,1-2.569,3.222,3.144,3.144,0,0,1-.326.017Z" transform="translate(-10.11 -2.99)"/>
    </g>
    <g id="Grupo_183" data-name="Grupo 183" transform="translate(21.378 80.282)">
      <path id="Caminho_119" data-name="Caminho 119" class="cls-1" d="M6.588,31.905a2.913,2.913,0,0,1-1.62-5.337l18.47-12.294a2.912,2.912,0,0,1,3.228,4.848L8.2,31.416A2.849,2.849,0,0,1,6.588,31.905Z" transform="translate(-3.669 -13.779)"/>
    </g>
    <g id="Grupo_184" data-name="Grupo 184" transform="translate(22.257 41.95)">
      <path id="Caminho_120" data-name="Caminho 120" class="cls-1" d="M22.814,21.533a2.909,2.909,0,0,1-1.358-.338L5.376,12.689A2.913,2.913,0,1,1,8.1,7.538l16.081,8.507a2.913,2.913,0,0,1-1.363,5.488Z" transform="translate(-3.82 -7.2)"/>
    </g>
  </g>
</svg>
