<svg xmlns="http://www.w3.org/2000/svg" width="162.995" height="179.002" viewBox="0 0 162.995 179.002">
	<path fill="#000" id="Form_22" data-name="Form 22" class="cls-1"
		d="M1000.452,816A24.43,24.43,0,0,1,976,791.591V677.68a24.429,24.429,0,0,1,24.45-24.409h16.3V638a1,1,0,0,1,1-1h14.3a1,1,0,0,1,1,1v15.273h48.9V638a1,1,0,0,1,1-1h14.3a1,1,0,0,1,1,1v15.273h16.3A24.429,24.429,0,0,1,1139,677.68V791.591A24.429,24.429,0,0,1,1114.547,816Zm-8.149-24.41a8.142,8.142,0,0,0,8.149,8.137h114.1a8.144,8.144,0,0,0,8.151-8.137V718.363H992.3Zm130.4-89.5V677.68a8.144,8.144,0,0,0-8.151-8.136h-16.3v15.273a1,1,0,0,1-1,1h-14.3a1,1,0,0,1-1-1V669.544h-48.9v15.273a1,1,0,0,1-1,1h-14.3a1,1,0,0,1-1-1V669.544h-16.3a8.142,8.142,0,0,0-8.149,8.136v24.41Z"
		transform="translate(-976.001 -636.999)" />
</svg>
