<svg xmlns="http://www.w3.org/2000/svg" width="132" height="120" viewBox="0 0 132 120">
  <defs>
    <style>
      .cls-1 {
        fill: #fff;
      }
    </style>
  </defs>
  <path id="customers" class="cls-1" d="M90,120H18A18,18,0,0,1,0,102V42A18,18,0,0,1,18,24H36V18A18,18,0,0,1,54,0H78A18,18,0,0,1,96,18v6h18a18,18,0,0,1,18,18v60a18,18,0,0,1-18,18Zm24-12a6,6,0,0,0,6-6V42a6,6,0,0,0-6-6H96v72Zm-30,0V36H48v72ZM12,42v60a6,6,0,0,0,6,6H36V36H18A6,6,0,0,0,12,42ZM84,24V18a6,6,0,0,0-6-6H54a6,6,0,0,0-6,6v6Z"/>
</svg>
