<svg xmlns="http://www.w3.org/2000/svg" width="120" height="120" viewBox="0 0 120 120">
  <defs>
    <style>
      .cls-1 {
        fill: #fff;
      }
    </style>
  </defs>
  <path id="dashboard" class="cls-1" d="M72,120a6,6,0,0,1-6-6V72a6,6,0,0,1,6-6h42a6,6,0,0,1,6,6v42a6,6,0,0,1-6,6Zm6-12h30V78H78ZM6,120a6,6,0,0,1-6-6V72a6,6,0,0,1,6-6H48a6,6,0,0,1,6,6v42a6,6,0,0,1-6,6Zm6-12H42V78H12ZM72,54A6,6,0,0,1,66,48V5.994A6,6,0,0,1,72,0h42a6,6,0,0,1,6,5.994V48A6,6,0,0,1,114,54Zm6-12h30V12H78ZM6,54A6,6,0,0,1,0,48V5.994A6,6,0,0,1,6,0H48a6,6,0,0,1,6,5.994V48A6,6,0,0,1,48,54Zm6-12H42V12H12Z"/>
</svg>
