<svg xmlns="http://www.w3.org/2000/svg" width="137.866" height="162.727" viewBox="0 0 137.866 162.727">
  <defs>
    <style>
      .cls-1 {
        fill: #809fb8;
        stroke: #809fb8;
        stroke-width: 4px;
      }
    </style>
  </defs>
  <g id="arquivo" transform="translate(-38.097 2)">
    <g id="Grupo_33" data-name="Grupo 33" transform="translate(40.097)">
      <g id="Grupo_32" data-name="Grupo 32" transform="translate(0)">
        <path id="Caminho_81" data-name="Caminho 81" class="cls-1" d="M166.313,21.036H152.926V7.65A7.671,7.671,0,0,0,145.279,0H47.746A7.672,7.672,0,0,0,40.1,7.65V130.041a7.672,7.672,0,0,0,7.65,7.65H61.133v13.387a7.671,7.671,0,0,0,7.65,7.65H133.8a22.319,22.319,0,0,0,13.218-5.242l21.369-20.114a20.311,20.311,0,0,0,5.571-12.891l0-91.793A7.673,7.673,0,0,0,166.313,21.036Zm-105.18,7.65V131.953H47.746a1.938,1.938,0,0,1-1.912-1.912V7.65a1.938,1.938,0,0,1,1.912-1.912h97.533a1.939,1.939,0,0,1,1.912,1.912V21.036H68.782A7.671,7.671,0,0,0,61.133,28.686ZM164.456,129.194l-21.369,20.113a10.152,10.152,0,0,1-1.637,1.2v-17.6a4.8,4.8,0,0,1,4.781-4.781h19.133A8.029,8.029,0,0,1,164.456,129.194Zm3.765-8.715a8.922,8.922,0,0,1-.26,1.912h-21.73a10.54,10.54,0,0,0-10.518,10.518v19.848a10,10,0,0,1-1.912.231H68.782a1.936,1.936,0,0,1-1.912-1.912V28.685a1.937,1.937,0,0,1,1.912-1.912h97.53a1.938,1.938,0,0,1,1.912,1.912Z" transform="translate(-40.097)"/>
      </g>
    </g>
  </g>
</svg>
