<svg xmlns="http://www.w3.org/2000/svg" width="156.966" height="151.021" viewBox="0 0 156.966 151.021">
  <defs>
    <style>
      .cls-1 {
        fill: #809fb8;
        stroke: rgba(0,0,0,0);
        stroke-miterlimit: 10;
      }
    </style>
  </defs>
  <path id="Form_31" data-name="Form 31" class="cls-1" d="M448.181,807.993a5.64,5.64,0,0,0-.575.012h-.047a6,6,0,0,0-4.312,2.226c-1,.9-38.343,34.521-53.305,47.987l-17.96,16.156a6,6,0,1,0,8.037,8.916l1.979-1.78v52.509a103.4,103.4,0,0,0,.329,11.047c.35,3.112,1.157,6.381,3.69,8.917s5.8,3.351,8.915,3.7a103.178,103.178,0,0,0,11.059.329h6a103.2,103.2,0,0,0,11.06-.329c3.114-.351,6.382-1.166,8.915-3.7s3.341-5.8,3.69-8.917a103.4,103.4,0,0,0,.329-11.047v-12c0-4.484.026-7.769.246-9.712a9.552,9.552,0,0,1,.316-1.722,9.381,9.381,0,0,1,1.722-.317c1.944-.219,5.225-.246,9.711-.246s7.769.027,9.713.246a9.377,9.377,0,0,1,1.722.317,9.533,9.533,0,0,1,.317,1.722c.219,1.943.247,5.229.247,9.712v12a103.023,103.023,0,0,0,.328,11.06c.351,3.113,1.166,6.382,3.7,8.915s5.8,3.341,8.916,3.689a103.107,103.107,0,0,0,11.048.329h6a102.914,102.914,0,0,0,11.06-.329c3.114-.351,6.382-1.166,8.915-3.7s3.342-5.8,3.691-8.917a103.278,103.278,0,0,0,.329-11.047V881.508l1.979,1.781a6,6,0,1,0,8.037-8.915h0L506.02,858.218c-14.953-13.457-52.229-47.014-53.283-47.964l-.011-.012a6,6,0,0,0-4.546-2.249Zm-.2,14.141L472.4,844.1l25.622,23.057a11.994,11.994,0,0,1,3.948,8.892v57.969c0,4.483-.028,7.768-.246,9.712a9.464,9.464,0,0,1-.316,1.722,9.491,9.491,0,0,1-1.723.316c-1.944.22-5.225.247-9.712.247h-6c-4.482,0-7.767-.028-9.711-.247a9.624,9.624,0,0,1-1.723-.316,9.4,9.4,0,0,1-.316-1.722c-.219-1.944-.245-5.225-.245-9.712v-12a103.706,103.706,0,0,0-.328-11.048c-.35-3.112-1.158-6.38-3.691-8.917s-5.8-3.35-8.915-3.7a102.934,102.934,0,0,0-11.059-.328,102.939,102.939,0,0,0-11.06.328c-3.114.351-6.383,1.167-8.915,3.7s-3.342,5.8-3.691,8.917a103.561,103.561,0,0,0-.329,11.048v12c0,4.483-.028,7.768-.245,9.712a9.572,9.572,0,0,1-.316,1.722,9.482,9.482,0,0,1-1.723.316c-1.944.22-5.226.247-9.711.247h-6c-4.486,0-7.768-.027-9.711-.247a9.431,9.431,0,0,1-1.723-.316,9.548,9.548,0,0,1-.316-1.722c-.218-1.944-.246-5.229-.246-9.712V876.048a11.991,11.991,0,0,1,3.971-8.915c7.184-6.465,14.427-12.981,25.6-23.033l24.416-21.966Z" transform="translate(-369.498 -807.49)"/>
</svg>
