<svg xmlns="http://www.w3.org/2000/svg" width="160.674" height="160.674" viewBox="0 0 160.674 160.674">

	<path class="cls-2" d="M88.28,56.22h-69.2a5.163,5.163,0,1,1,0-10.327H88.278a5.163,5.163,0,0,1,0,10.327Z"
		transform="translate(-13.92 18.928)" />
	<path class="cls-2" d="M88.28,37.389h-69.2a5.163,5.163,0,1,1,0-10.327H88.278a5.163,5.163,0,0,1,0,10.327Z"
		transform="translate(-13.92 5.349)" />
	<path class="cls-2" d="M88.28,18.558h-69.2a5.163,5.163,0,1,1,0-10.327H88.278a5.163,5.163,0,0,1,0,10.327Z"
		transform="translate(-13.92 -8.231)" />
</svg>
