<svg id="Grupo_351" data-name="Grupo 351" xmlns="http://www.w3.org/2000/svg" width="142" height="142" viewBox="0 0 142 142">
  <circle id="Ellipse_4" data-name="Ellipse 4" cx="71" cy="71" r="71" fill="#1ad598"/>
  <path id="check" d="M905.171,3839a6.511,6.511,0,0,0-4.625,2.189c-10.646,11.5-20.366,22.773-30.589,34.023l-12.019-10.385a6.408,6.408,0,0,0-9.461,1.129,7.644,7.644,0,0,0,1.048,10.2l0,0,16.819,14.5a6.377,6.377,0,0,0,8.97-.566c12.1-13.068,22.938-25.9,34.759-38.67a7.655,7.655,0,0,0,.089-10.254A6.471,6.471,0,0,0,905.171,3839Z" transform="translate(-805.584 -3797.592)" fill="#fff"/>
</svg>
