<svg xmlns="http://www.w3.org/2000/svg" width="110.014" height="166.017" viewBox="0 0 110.014 166.017">
	<path id="reports" class="cls-1"
		d="M768.457,2842c-.128,0-.257-.005-.385-.015H735.479c-8.222,0-14.471.026-19.64-.6s-9.707-1.99-13.066-5.606-4.62-8.511-5.2-14.084-.569-12.316-.569-21.19v-82.963c0-8.863-.025-15.6.559-21.166s1.84-10.469,5.194-14.085,7.9-4.986,13.066-5.615,11.428-.615,19.66-.615h32.1a5.16,5.16,0,0,1,.8-.08,4.868,4.868,0,0,1,1.147.119c4.9.005,8.663.079,12.423,2.111,4.056,2.2,6.941,5.563,12.393,11.434,5.452,5.889,8.583,9.019,10.616,13.4,1.88,4.053,1.949,8.112,1.954,13.354a6.323,6.323,0,0,1,.029,2.137v81.982c0,8.87.015,15.6-.568,21.179s-1.85,10.469-5.2,14.084-7.9,4.978-13.066,5.606c-5,.6-11.006.612-18.832.612Zm-51.4-153.551c-4.1.5-5.753,1.37-6.531,2.213s-1.578,2.614-2.038,7.032-.5,10.987-.5,19.845V2800.5c0,8.868.031,15.445.5,19.86s1.271,6.2,2.048,7.04,2.429,1.7,6.53,2.2,10.191.531,18.414.531h32.978c.129,0,.258,0,.386.012,8,0,14.006-.043,18.028-.533,4.1-.5,5.749-1.37,6.531-2.208s1.588-2.609,2.048-7.024.5-11,.5-19.867v-77.043H768.457a5.726,5.726,0,0,1-5.5-5.93v-29.625H735.479C727.251,2687.916,721.152,2687.949,717.055,2688.451Zm56.9,23.167h21.862a9.28,9.28,0,0,0-.7-3.275c-.742-1.594-3.112-4.443-8.559-10.309s-8.073-8.433-9.543-9.226a7.614,7.614,0,0,0-3.062-.753Zm-49.626,100.738a5.943,5.943,0,0,1,.159-11.851h55.122a5.942,5.942,0,0,1-.154,11.851H724.486a.617.617,0,0,1-.159,0Zm55.127-23.7H724.327a5.943,5.943,0,0,1,.159-11.851h55.122a5.945,5.945,0,0,1-.071,11.851Zm0-23.7H724.327a5.945,5.945,0,0,1,.159-11.856h55.122a5.949,5.949,0,0,1-.08,11.857C779.5,2764.956,779.479,2764.956,779.454,2764.954Z"
		transform="translate(-696.999 -2675.985)" />
</svg>
