<svg xmlns="http://www.w3.org/2000/svg" viewBox="0 0 188.711 126.632">
	<path fill="#fff"
		d="M26.3,18.775a3.145,3.145,0,1,1,6.177-1.183,16.563,16.563,0,0,0,28.561,8.02A3.145,3.145,0,0,1,65.7,29.821a22.872,22.872,0,0,1-13.326,7.234,12.471,12.471,0,0,0,10.879,6.29,3.145,3.145,0,0,1,0,6.29A18.711,18.711,0,0,1,45.536,37.115,22.96,22.96,0,0,1,26.3,18.775Z"
		transform="translate(39.808 32.14)" />
	<path fill="#fff"
		d="M12.63,83.348A23.683,23.683,0,0,1,10.6,55.469,15.339,15.339,0,0,1,22.091,34.522,32.647,32.647,0,0,1,54.068,7.338c.535,0,1.044.066,1.573.091A15.245,15.245,0,0,1,79.6,4.558,26.187,26.187,0,0,1,94.333,0a26.489,26.489,0,0,1,21.136,10.694,18.893,18.893,0,0,1,24.671,17.3,15.367,15.367,0,0,1,9.8,14.3,15.063,15.063,0,0,1-.434,3.406,30.924,30.924,0,0,1,5.315,17.383,31.276,31.276,0,0,1-31.207,31.276,30.87,30.87,0,0,1-7.932-1.035,23.8,23.8,0,0,1-37.947,6.517,36.843,36.843,0,0,1-9.058,1.746c-1.733,7.19-7.048,11.511-18.506,15.352a18.2,18.2,0,0,0-8.357,5.5,11.738,11.738,0,0,1-8.9,4.193,11.058,11.058,0,0,1-4.353-.89,11.323,11.323,0,0,1-6.875-10.407,11.087,11.087,0,0,1,.56-3.482,41.472,41.472,0,0,1,3.774-8.492A32.333,32.333,0,0,1,12.63,83.348Zm27.363,19.01a3.145,3.145,0,0,1-.494,6.249,3.417,3.417,0,0,1-.5-.038,32.024,32.024,0,0,1-7.486-2.18,35.035,35.035,0,0,0-3.284,7.416,4.749,4.749,0,0,0-.248,1.522,5.032,5.032,0,0,0,3.057,4.623,5.227,5.227,0,0,0,5.976-1.573,24.36,24.36,0,0,1,11.156-7.4c9.165-3.07,12.628-5.872,14-9.558a36.876,36.876,0,0,1-6.879-1.356,3.145,3.145,0,1,1,1.846-6.014,30.92,30.92,0,0,0,6.948,1.28A29.785,29.785,0,0,0,77.465,93.3a3.46,3.46,0,0,1,3.529.874A17.611,17.611,0,0,0,109.414,73.6a3.146,3.146,0,0,1,5.4-3.233,23.862,23.862,0,0,1,2.381,5.479,6.743,6.743,0,0,0,6.919-6.6v-.1a3.107,3.107,0,0,1,3.145-3.1,3.189,3.189,0,0,1,3.145,3.2A12.9,12.9,0,0,1,118.164,82.1c0,.2.038.393.038.591a24.12,24.12,0,0,1-.465,4.7,24.882,24.882,0,0,0,28.348-34.984,15.352,15.352,0,0,1-3.589,3.057,3.146,3.146,0,0,1-3.246-5.391A9.086,9.086,0,0,0,134.6,33.2a8.945,8.945,0,0,0-7.234,3.648,3.147,3.147,0,1,1-5.048-3.759,15.16,15.16,0,0,1,11.392-6.13,12.713,12.713,0,0,0-12.537-10.886,12.477,12.477,0,0,0-2.485.28,26.533,26.533,0,0,1,1.117,3.318,3.145,3.145,0,0,1-6.089,1.573A19.893,19.893,0,0,0,83.007,9.908a15.2,15.2,0,0,1,1.05,5.469,3.145,3.145,0,1,1-6.29,0,9.058,9.058,0,1,0-18.113,0,3.145,3.145,0,1,1-6.29,0,15.464,15.464,0,0,1,.173-1.72A26.316,26.316,0,0,0,28.444,34.729,15.166,15.166,0,0,1,34,37.324a3.145,3.145,0,1,1-3.774,5.032A9.077,9.077,0,0,0,16.9,54.1a9.206,9.206,0,0,0,4.089,3.774,3.146,3.146,0,1,1-2.673,5.7,15.412,15.412,0,0,1-3.6-2.384,17.443,17.443,0,0,0,3.1,18.585l.063.066a17.808,17.808,0,0,0,21.007,3.856,16.469,16.469,0,0,0,2.62-1.639A12.861,12.861,0,0,1,40.1,68.317a3.145,3.145,0,0,1,5.627,2.812,6.633,6.633,0,0,0,2.151,8.41,6.731,6.731,0,0,0,9.687-2.469,3.145,3.145,0,0,1,5.627,2.812,12.773,12.773,0,0,1-16.641,6.054A22.892,22.892,0,0,1,41.742,89.3a23.5,23.5,0,0,1-19.683.881,25.863,25.863,0,0,0,17.934,12.188Z"
		transform="translate(11.871 0)" />
	<path fill="#fff"
		d="M21,13.145A3.145,3.145,0,0,1,24.145,10a17.317,17.317,0,0,1,17.3,17.3,3.145,3.145,0,0,1-6.29,0A11.008,11.008,0,0,0,24.145,16.29,3.145,3.145,0,0,1,21,13.145Z"
		transform="translate(81.219 21.452)" />
	<path fill="#fff"
		d="M13.621,3.921a3.145,3.145,0,0,1,0,4.447l-6.29,6.29a3.145,3.145,0,0,1-4.447-4.447l6.29-6.29a3.145,3.145,0,0,1,4.447,0Z"
		transform="translate(167.879 6.436)" />
	<path fill="#fff"
		d="M54.909,3.921a3.145,3.145,0,0,1,4.447,0l6.29,6.29A3.145,3.145,0,1,1,61.2,14.659l-6.29-6.29A3.145,3.145,0,0,1,54.909,3.921Z"
		transform="translate(-47.697 6.436)" />
	<path fill="#fff" d="M7.318,27.9l6.29,6.29a3.145,3.145,0,1,1-4.447,4.447l-6.29-6.29A3.145,3.145,0,0,1,7.318,27.9Z"
		transform="translate(167.891 57.947)" />
	<path fill="#fff" d="M59.342,38.633A3.145,3.145,0,0,1,54.9,34.186l6.29-6.29a3.145,3.145,0,0,1,4.447,4.447Z"
		transform="translate(-47.683 57.947)" />
	<path fill="#fff"
		d="M12.581,19.145A3.145,3.145,0,0,1,9.436,22.29H3.145a3.145,3.145,0,1,1,0-6.29h6.29A3.145,3.145,0,0,1,12.581,19.145Z"
		transform="translate(176.131 34.323)" />
	<path fill="#fff" d="M59.145,16h6.29a3.145,3.145,0,0,1,0,6.29h-6.29a3.145,3.145,0,1,1,0-6.29Z"
		transform="translate(-56 34.323)" />
</svg>
