<svg xmlns="http://www.w3.org/2000/svg" width="141.944" height="141.944" viewBox="0 0 141.944 141.944">
  <path id="user" d="M121.156,20.787a70.972,70.972,0,0,0-100.37,100.37,70.972,70.972,0,0,0,100.37-100.37ZM35.58,122.644a35.938,35.938,0,0,1,70.783,0,62.519,62.519,0,0,1-70.783,0ZM48.405,62.063A22.566,22.566,0,1,1,70.971,84.63,22.591,22.591,0,0,1,48.405,62.063Zm65.162,54.812A44.324,44.324,0,0,0,87.8,87.947a30.883,30.883,0,1,0-33.656,0,44.317,44.317,0,0,0-25.768,28.928,62.654,62.654,0,1,1,85.191,0Zm0,0" transform="translate(0)"/>
</svg>
