<svg id="Grupo_337" data-name="Grupo 337" xmlns="http://www.w3.org/2000/svg" width="101.687" height="39.864" viewBox="0 0 101.687 39.864">
  <defs>
    <style>
      .cls-1 {
        fill: #fff;
      }
    </style>
  </defs>
  <path id="Caminho_100" data-name="Caminho 100" class="cls-1" d="M267.194,599.9l-3.216-3.217-3.084,3.084a4.2,4.2,0,0,0,0,5.914l3.216,3.216,3.084-3.085a4.2,4.2,0,0,0,0-5.912" transform="translate(-197.708 -582.858)"/>
  <path id="Caminho_101" data-name="Caminho 101" class="cls-1" d="M233.146,599.764l-3.081-3.081-3.219,3.219a4.19,4.19,0,0,0,0,5.912l3.081,3.083,3.218-3.219a4.2,4.2,0,0,0,0-5.914" transform="translate(-194.642 -582.858)"/>
  <path id="Caminho_102" data-name="Caminho 102" class="cls-1" d="M288.571,600.216a5.611,5.611,0,0,1-1.779,4.207c-1.815,1.763-3.708,3.448-5.6,5.134a1.739,1.739,0,0,1-.765.379c-.031.008-.062.017-.093.023s-.068.011-.1.016a1.926,1.926,0,0,1-.274.022h-.018a2.036,2.036,0,0,1-1.233-.447c-1.873-1.672-3.751-3.341-5.553-5.088a5.424,5.424,0,0,1-1.8-4.2c0-.024,0-.046,0-.07a4.816,4.816,0,0,1,.312-1.7c.015-.042.031-.084.046-.126.01-.025.018-.05.029-.074A4.364,4.364,0,0,1,273.785,596a4.794,4.794,0,0,1,1.51-.555c.127-.026.255-.045.381-.058l.047,0c.133-.014.265-.019.4-.02.021,0,.041,0,.063,0s.047,0,.072,0c.062,0,.125.005.186.009a4.819,4.819,0,0,1,3.522,1.815,4.821,4.821,0,0,1,7.578.024c.057.074.114.148.167.225.029.042.057.086.086.128.062.094.12.19.175.288l.03.052c.065.122.126.247.181.376.006.016.014.03.02.046.055.13.1.264.146.4l.016.053c.041.135.076.272.106.411.005.023.009.045.014.067.026.137.049.276.064.416,0,.029,0,.059.006.088.005.06.011.119.014.179s0,.118,0,.177c0,.025,0,.048,0,.073ZM298.6,598.4,282.92,582.717a4.2,4.2,0,0,0-5.916,0l-12.6,12.6,3.216,3.217a4.2,4.2,0,0,1,0,5.912l-3.084,3.085L277,620a4.192,4.192,0,0,0,5.916,0L298.6,604.317a4.2,4.2,0,0,0,0-5.914" transform="translate(-198.134 -581.49)"/>
  <path id="Caminho_103" data-name="Caminho 103" class="cls-1" d="M247.224,594.023a2.134,2.134,0,1,0,2.134,2.134,2.136,2.136,0,0,0-2.134-2.134" transform="translate(-196.395 -582.618)"/>
  <path id="Caminho_104" data-name="Caminho 104" class="cls-1" d="M253.992,600.086l-4.9,2.8v8.393a1.177,1.177,0,0,1-2.355,0V602.2a1.179,1.179,0,0,1,.593-1.023l5.493-3.138a1.177,1.177,0,0,1,1.168,2.045m-8.095-.555a4.489,4.489,0,1,1,4.488-4.49,4.495,4.495,0,0,1-4.488,4.49m-.811,11.747a1.177,1.177,0,0,1-2.354,0v-8.393l-4.9-2.8A1.177,1.177,0,0,1,239,598.041l5.493,3.138a1.179,1.179,0,0,1,.593,1.023Zm13.168-6.949a4.2,4.2,0,0,1,0-5.913l3.084-3.085-12.468-12.47a4.2,4.2,0,0,0-5.916,0L230.49,595.327l3.081,3.082a4.2,4.2,0,0,1,0,5.914l-3.218,3.219,12.6,12.605a4.2,4.2,0,0,0,5.916,0l12.6-12.6Z" transform="translate(-195.068 -581.503)"/>
  <path id="Caminho_105" data-name="Caminho 105" class="cls-1" d="M213.469,609.011l5.545-5.545a.71.71,0,1,0-1-1L213.469,607v-3.64l3.068-3.068a.71.71,0,0,0-1-1l-2.065,2.065v-3.8a.71.71,0,1,0-1.42,0v3.827l-2.09-2.09a.71.71,0,0,0-1,1l3.094,3.094v3.639l-4.566-4.566a.71.71,0,1,0-1,1l5.571,5.571v3.522c.235.021.47.04.71.04s.475-.02.71-.041Z" transform="translate(-192.899 -582.872)"/>
  <path id="Caminho_106" data-name="Caminho 106" class="cls-1" d="M219.766,603.111c0,.03,0,.06,0,.09a8.085,8.085,0,0,1-.3,2.191c-.015.055-.03.109-.045.163-.01.032-.018.065-.028.1a5.532,5.532,0,0,1-1.542,2.5,8.252,8.252,0,0,1-12.695.168,5.544,5.544,0,0,1-1.056-1.272c-.055-.095-.11-.191-.162-.289-.029-.056-.056-.111-.083-.167-.06-.122-.116-.246-.17-.372-.009-.023-.019-.044-.028-.066q-.1-.237-.176-.487l-.019-.058c-.053-.168-.1-.341-.142-.517-.005-.023-.011-.045-.015-.068q-.06-.261-.1-.531c0-.028-.008-.058-.013-.086-.026-.177-.047-.356-.061-.537,0-.038,0-.076-.007-.114,0-.077-.01-.154-.013-.232s0-.152,0-.227c0-.032,0-.063,0-.095,0-.011,0-.022,0-.034l0-.049c0-.087-.025-.169-.025-.257a8.264,8.264,0,0,1,.4-2.416c.042-.147.086-.292.135-.434.094-.257.2-.505.314-.749a7.939,7.939,0,0,1,.44-.811c.086-.136.167-.273.26-.4.07-.1.124-.213.2-.311,1.757-2.275,3.589-4.451,5.416-6.628a1.57,1.57,0,0,1,.741-.49c.03-.01.06-.022.09-.03s.066-.015.1-.02a1.355,1.355,0,0,1,.265-.029h.018a1.327,1.327,0,0,1,.257.029,1.586,1.586,0,0,1,.936.548c1.813,2.157,3.63,4.315,5.375,6.57.1.133.182.285.278.424.045.065.086.131.128.2a8.21,8.21,0,0,1,.591,1.089c.059.129.117.257.17.39a7.82,7.82,0,0,1,.288.929c.062.232.126.461.167.7.028.175.036.36.055.541a8.224,8.224,0,0,1,.091.9c0,.085-.023.164-.025.248Zm4.014-4.577L227,595.315l-12.6-12.6a4.2,4.2,0,0,0-5.916,0L192.8,598.4a4.191,4.191,0,0,0,0,5.914L208.479,620a4.2,4.2,0,0,0,5.916,0l12.465-12.466-3.081-3.083a4.19,4.19,0,0,1,0-5.912" transform="translate(-191.575 -581.489)"/>
</svg>
