<svg id="Grupo_336" data-name="Grupo 336" xmlns="http://www.w3.org/2000/svg" width="406.617" height="49.667" viewBox="0 0 406.617 49.667">
  <defs>
    <style>
      .cls-1 {
        fill: #fff;
      }

      .cls-2 {
        fill: #808285;
      }

      .cls-3 {
        fill: #3763af;
      }

      .cls-4 {
        fill: #ed1d24;
      }

      .cls-5 {
        fill: #0888ca;
      }

      .cls-6 {
        fill: #118acb;
      }

      .cls-7 {
        fill: #71b744;
      }

      .cls-8 {
        fill: #72bf44;
      }
    </style>
  </defs>
  <path id="Caminho_1" data-name="Caminho 1" class="cls-1" d="M289.84,629.471a5.224,5.224,0,0,0,7.371,0l19.539-19.542a5.232,5.232,0,0,0,0-7.368l-19.539-19.543a5.23,5.23,0,0,0-7.371,0l-15.7,15.7L258.609,583.18a5.23,5.23,0,0,0-7.371,0L236.1,598.323l-.39.391-15.7-15.7a5.226,5.226,0,0,0-7.371,0L193.1,602.553a5.222,5.222,0,0,0,0,7.368l19.54,19.543a5.232,5.232,0,0,0,7.371,0l15.179-15.182.351-.35,15.7,15.705a5.232,5.232,0,0,0,7.371,0l15.7-15.7Z" transform="translate(-191.574 -581.489)"/>
  <path id="Caminho_2" data-name="Caminho 2" class="cls-2" d="M335.465,605.28a21.39,21.39,0,0,0-.515-4.838,9.31,9.31,0,0,0-1.825-3.833,8.543,8.543,0,0,0-3.486-2.5,14.516,14.516,0,0,0-5.452-.889c-.624,0-1.273.017-1.942.046s-1.334.094-1.99.187v24.309h3.885a12.866,12.866,0,0,0,5.311-.982,9.215,9.215,0,0,0,3.51-2.664,10.478,10.478,0,0,0,1.918-3.952,19.485,19.485,0,0,0,.585-4.884m4.153-.256a20.877,20.877,0,0,1-1.4,7.769,12.787,12.787,0,0,1-4.385,5.715,13.244,13.244,0,0,1-4.386,1.984,23.65,23.65,0,0,1-5.971.675H316.2V590.093q2.471-.279,4.363-.373t3.522-.092a19.951,19.951,0,0,1,7.464,1.212,11.776,11.776,0,0,1,7.325,8.211,23.063,23.063,0,0,1,.747,5.973" transform="translate(-174.912 -580.401)"/>
  <path id="Caminho_3" data-name="Caminho 3" class="cls-2" d="M356.319,609.036a16.129,16.129,0,0,0-.258-2.868,7.926,7.926,0,0,0-.914-2.567,5.047,5.047,0,0,0-1.826-1.843,5.877,5.877,0,0,0-3.043-.7,5.8,5.8,0,0,0-2.974.7,5.369,5.369,0,0,0-1.9,1.843,8.076,8.076,0,0,0-1.007,2.567,13.6,13.6,0,0,0-.3,2.868,17.335,17.335,0,0,0,.255,2.941,7.883,7.883,0,0,0,.961,2.683,5.913,5.913,0,0,0,1.873,1.959,5.353,5.353,0,0,0,3,.77,5.69,5.69,0,0,0,3.093-.77,5.388,5.388,0,0,0,1.872-1.959,8.479,8.479,0,0,0,.914-2.683,17.35,17.35,0,0,0,.258-2.941m4.153,0a17.174,17.174,0,0,1-.56,4.41,10.624,10.624,0,0,1-1.8,3.755,8.9,8.9,0,0,1-3.194,2.613,10.558,10.558,0,0,1-4.759.979,10.875,10.875,0,0,1-4.736-.931,8.6,8.6,0,0,1-3.151-2.52,10.456,10.456,0,0,1-1.773-3.708,17.476,17.476,0,0,1-.558-4.458,14.8,14.8,0,0,1,.653-4.432,10.5,10.5,0,0,1,1.958-3.663,9.614,9.614,0,0,1,3.243-2.5,10.381,10.381,0,0,1,4.549-.933,10.592,10.592,0,0,1,4.666.933,8.757,8.757,0,0,1,3.126,2.5,10.184,10.184,0,0,1,1.773,3.617,16.383,16.383,0,0,1,.56,4.338" transform="translate(-171.736 -579.328)"/>
  <path id="Caminho_4" data-name="Caminho 4" class="cls-2" d="M370.555,617.361a7.236,7.236,0,0,0,2.311-.351,7.146,7.146,0,0,0,1.8-.865,4.749,4.749,0,0,0,1.165-1.1,1.872,1.872,0,0,0,.422-1.05V597.9h.28a2.067,2.067,0,0,0,.256-.022,1.941,1.941,0,0,1,.3-.025,3.613,3.613,0,0,1,2.218.678,2.876,2.876,0,0,1,.909,2.449v19.082h-3.965v-2.013a8.413,8.413,0,0,1-2.613,1.885,9.834,9.834,0,0,1-4.34.828,8.636,8.636,0,0,1-4.2-.839,5.568,5.568,0,0,1-2.216-2.146,7.188,7.188,0,0,1-.863-2.868q-.139-1.565-.141-3.01v-14h.28a2.046,2.046,0,0,0,.257-.022,1.944,1.944,0,0,1,.3-.025,3.7,3.7,0,0,1,2.216.656,2.81,2.81,0,0,1,.91,2.431v10.991a13.017,13.017,0,0,0,.255,2.9,2.672,2.672,0,0,0,1.051,1.636,4.065,4.065,0,0,0,1.516.7,8.463,8.463,0,0,0,1.89.188" transform="translate(-168.804 -579.301)"/>
  <path id="Caminho_5" data-name="Caminho 5" class="cls-2" d="M383.5,618.033a6.866,6.866,0,0,1-.4-1.937q-.07-1.049-.071-2.076V592.183h.28a1.737,1.737,0,0,0,.258-.024,2.258,2.258,0,0,1,.3-.023,3.753,3.753,0,0,1,2.194.648,2.69,2.69,0,0,1,.933,2.363v3.707h6.951v3.407H387V614.3q0,3.824,3.031,3.826a3.784,3.784,0,0,0,1.4-.256,6.042,6.042,0,0,0,1.168-.606,7.525,7.525,0,0,0,.863-.678,3.591,3.591,0,0,0,.443-.465,13.294,13.294,0,0,1,.958,1.352,2.426,2.426,0,0,1,.395,1.26,1.449,1.449,0,0,1-.42.909,4.214,4.214,0,0,1-1.168.908,7.6,7.6,0,0,1-1.842.7,9.8,9.8,0,0,1-2.4.278,7.083,7.083,0,0,1-3.873-.931,5.076,5.076,0,0,1-2.052-2.567" transform="translate(-165.976 -580.066)"/>
  <path id="Caminho_6" data-name="Caminho 6" class="cls-2" d="M411.423,609.036a16.113,16.113,0,0,0-.259-2.868,7.926,7.926,0,0,0-.915-2.567,5.052,5.052,0,0,0-1.825-1.843,5.887,5.887,0,0,0-3.045-.7,5.79,5.79,0,0,0-2.971.7,5.369,5.369,0,0,0-1.9,1.843,8.026,8.026,0,0,0-1.007,2.567,13.6,13.6,0,0,0-.3,2.868,17.331,17.331,0,0,0,.256,2.941,7.931,7.931,0,0,0,.96,2.683,5.954,5.954,0,0,0,1.875,1.959,5.351,5.351,0,0,0,3,.77,5.686,5.686,0,0,0,3.092-.77,5.4,5.4,0,0,0,1.872-1.959,8.478,8.478,0,0,0,.915-2.683,17.332,17.332,0,0,0,.259-2.941m4.153,0a17.279,17.279,0,0,1-.56,4.41,10.683,10.683,0,0,1-1.8,3.755,8.936,8.936,0,0,1-3.2,2.613,10.556,10.556,0,0,1-4.757.979,10.888,10.888,0,0,1-4.738-.931,8.6,8.6,0,0,1-3.15-2.52,10.417,10.417,0,0,1-1.771-3.708,17.424,17.424,0,0,1-.561-4.458,14.8,14.8,0,0,1,.654-4.432,10.5,10.5,0,0,1,1.959-3.663,9.594,9.594,0,0,1,3.244-2.5,10.379,10.379,0,0,1,4.547-.933,10.6,10.6,0,0,1,4.668.933,8.752,8.752,0,0,1,3.125,2.5,10.227,10.227,0,0,1,1.774,3.617,16.481,16.481,0,0,1,.56,4.338" transform="translate(-164.369 -579.328)"/>
  <path id="Caminho_7" data-name="Caminho 7" class="cls-2" d="M417.984,598.025a3.6,3.6,0,0,1,1.937.538,2.4,2.4,0,0,1,1.05,1.8,6.824,6.824,0,0,1,1.96-1.843,5.371,5.371,0,0,1,3.032-.863,6.925,6.925,0,0,1,1.1.094,5.084,5.084,0,0,1,1.1.3,2.226,2.226,0,0,1,.838.584,1.436,1.436,0,0,1,.326.979,4.04,4.04,0,0,1-.373,1.61,9.007,9.007,0,0,1-.746,1.424,4.628,4.628,0,0,0-1.306-.863,4.975,4.975,0,0,0-3.29-.048,4.433,4.433,0,0,0-1.282.7,3.579,3.579,0,0,0-.886,1,2.282,2.282,0,0,0-.327,1.166v15.49h-3.965V598.073h.327a1.591,1.591,0,0,0,.28-.025,1.539,1.539,0,0,1,.231-.023" transform="translate(-161.414 -579.328)"/>
  <path id="Caminho_8" data-name="Caminho 8" class="cls-2" d="M453.167,614.94V589.884a1.379,1.379,0,0,0,.326-.045,2.952,2.952,0,0,0,.352-.024,4.2,4.2,0,0,1,.443-.023,3.724,3.724,0,0,1,.884.116,2.39,2.39,0,0,1,.865.421,2.2,2.2,0,0,1,.653.886,3.839,3.839,0,0,1,.256,1.516v28.414h-3.78L437.3,596.93v24.215h-3.78v-31.12a4.689,4.689,0,0,1,.795-.163,7.592,7.592,0,0,1,1.026-.069,3.148,3.148,0,0,1,1.611.349,3.437,3.437,0,0,1,1.094,1.189Z" transform="translate(-159.224 -580.379)"/>
  <path id="Caminho_9" data-name="Caminho 9" class="cls-2" d="M473.729,609.036h-1.343a25.146,25.146,0,0,0-3.021.188,10.778,10.778,0,0,0-2.786.7,5.331,5.331,0,0,0-2.044,1.424,3.545,3.545,0,0,0-.789,2.4,3.932,3.932,0,0,0,.836,2.472,3.761,3.761,0,0,0,3.113,1.075,7.458,7.458,0,0,0,2.3-.352,8.786,8.786,0,0,0,1.926-.863,5.083,5.083,0,0,0,1.323-1.121,1.871,1.871,0,0,0,.486-1.164Zm3.919,5.972a12.568,12.568,0,0,0,.1,1.75,1.834,1.834,0,0,0,.348.934,1.207,1.207,0,0,0,.7.4,5.744,5.744,0,0,0,1.146.093v1.867a6.567,6.567,0,0,1-1.029.234,8.237,8.237,0,0,1-1.26.093,5.313,5.313,0,0,1-2.55-.583,2.537,2.537,0,0,1-1.274-2.077,10.6,10.6,0,0,1-2.791,1.984,9.6,9.6,0,0,1-4.279.816,11.107,11.107,0,0,1-2.441-.28,5.888,5.888,0,0,1-2.231-1.026,5.761,5.761,0,0,1-1.653-2.008,7.021,7.021,0,0,1-.65-3.22,6.144,6.144,0,0,1,1.232-3.964,8.785,8.785,0,0,1,3.045-2.426,13.638,13.638,0,0,1,3.884-1.214,29.738,29.738,0,0,1,3.788-.373h.977a8.77,8.77,0,0,1,.977.046v-.7a4.587,4.587,0,0,0-1-3.2q-1-1.1-3.85-1.1a10.3,10.3,0,0,0-3.546.535,12.794,12.794,0,0,0-2.8,1.47h-.466a7.035,7.035,0,0,1-.628-1.307,3.473,3.473,0,0,1-.258-1.119,1.474,1.474,0,0,1,.748-1.144,7.763,7.763,0,0,1,1.935-.955,15.377,15.377,0,0,1,2.637-.653,17.851,17.851,0,0,1,2.846-.234,13.149,13.149,0,0,1,3.971.514,6.119,6.119,0,0,1,2.585,1.541,5.656,5.656,0,0,1,1.393,2.565,14.17,14.17,0,0,1,.4,3.546Z" transform="translate(-155.714 -579.328)"/>
  <path id="Caminho_10" data-name="Caminho 10" class="cls-2" d="M482.84,618.033a6.866,6.866,0,0,1-.4-1.937q-.07-1.049-.072-2.076V592.183h.28a1.735,1.735,0,0,0,.258-.024,2.261,2.261,0,0,1,.3-.023,3.753,3.753,0,0,1,2.194.648,2.69,2.69,0,0,1,.933,2.363v3.707h6.951v3.407H486.34V614.3q0,3.824,3.032,3.826a3.783,3.783,0,0,0,1.4-.256,6.037,6.037,0,0,0,1.168-.606,7.527,7.527,0,0,0,.863-.678,3.58,3.58,0,0,0,.443-.465,13.284,13.284,0,0,1,.958,1.352,2.424,2.424,0,0,1,.394,1.26,1.448,1.448,0,0,1-.419.909,4.213,4.213,0,0,1-1.168.908,7.6,7.6,0,0,1-1.842.7,9.8,9.8,0,0,1-2.4.278,7.083,7.083,0,0,1-3.873-.931,5.076,5.076,0,0,1-2.052-2.567" transform="translate(-152.693 -580.066)"/>
  <path id="Caminho_11" data-name="Caminho 11" class="cls-2" d="M506.237,617.361a7.235,7.235,0,0,0,2.311-.351,7.15,7.15,0,0,0,1.8-.865,4.748,4.748,0,0,0,1.165-1.1,1.872,1.872,0,0,0,.422-1.05V597.9h.28a2.065,2.065,0,0,0,.256-.022,1.954,1.954,0,0,1,.3-.025,3.613,3.613,0,0,1,2.217.678,2.876,2.876,0,0,1,.909,2.449v19.082h-3.965v-2.013a8.411,8.411,0,0,1-2.613,1.885,9.834,9.834,0,0,1-4.34.828,8.636,8.636,0,0,1-4.2-.839,5.557,5.557,0,0,1-2.215-2.146,7.136,7.136,0,0,1-.863-2.868q-.143-1.565-.142-3.01v-14h.28a2.016,2.016,0,0,0,.256-.022,1.96,1.96,0,0,1,.3-.025,3.694,3.694,0,0,1,2.215.656,2.81,2.81,0,0,1,.909,2.431v10.991a12.913,12.913,0,0,0,.259,2.9,2.653,2.653,0,0,0,1.048,1.636,4.083,4.083,0,0,0,1.518.7,8.431,8.431,0,0,0,1.889.188" transform="translate(-150.663 -579.301)"/>
  <path id="Caminho_12" data-name="Caminho 12" class="cls-2" d="M521.279,598.025a3.592,3.592,0,0,1,1.936.538,2.391,2.391,0,0,1,1.051,1.8,6.806,6.806,0,0,1,1.96-1.843,5.371,5.371,0,0,1,3.032-.863,6.951,6.951,0,0,1,1.1.094,5.08,5.08,0,0,1,1.1.3,2.209,2.209,0,0,1,.837.584,1.436,1.436,0,0,1,.328.979,4.058,4.058,0,0,1-.373,1.61,9.083,9.083,0,0,1-.746,1.424,4.642,4.642,0,0,0-1.306-.863,4.48,4.48,0,0,0-1.774-.3,4.529,4.529,0,0,0-1.517.256,4.424,4.424,0,0,0-1.281.7,3.558,3.558,0,0,0-.886,1,2.284,2.284,0,0,0-.328,1.166v15.49H520.44V598.073h.328a1.6,1.6,0,0,0,.28-.025,1.529,1.529,0,0,1,.231-.023" transform="translate(-147.603 -579.328)"/>
  <path id="Caminho_13" data-name="Caminho 13" class="cls-2" d="M548.509,606.889a10.017,10.017,0,0,0-.256-2.332,5.158,5.158,0,0,0-.857-1.89,4.147,4.147,0,0,0-1.6-1.283,5.774,5.774,0,0,0-2.441-.467,5.322,5.322,0,0,0-3.97,1.587,6.653,6.653,0,0,0-1.743,4.385Zm-3.966,10.5a8.8,8.8,0,0,0,2.357-.28,7.446,7.446,0,0,0,1.726-.7,8.392,8.392,0,0,0,1.238-.863,9.1,9.1,0,0,0,.838-.816,9.39,9.39,0,0,1,.911,1.4,2.746,2.746,0,0,1,.395,1.167,1.559,1.559,0,0,1-.231.779,3,3,0,0,1-.795.828,9.466,9.466,0,0,1-2.75,1.349,14.617,14.617,0,0,1-8.189-.087,8.718,8.718,0,0,1-3.4-2.029,9.684,9.684,0,0,1-2.311-3.663,15.809,15.809,0,0,1-.849-5.529,13.567,13.567,0,0,1,.863-5.086,10.189,10.189,0,0,1,2.264-3.521,8.825,8.825,0,0,1,3.195-2.03,10.769,10.769,0,0,1,3.709-.653,9.593,9.593,0,0,1,4.083.794,7.667,7.667,0,0,1,2.775,2.122,8.8,8.8,0,0,1,1.587,3.079,12.769,12.769,0,0,1,.514,3.615c0,.436-.008.881-.024,1.331a11,11,0,0,1-.118,1.283h-14.7a9.063,9.063,0,0,0,1.8,5.449,6.153,6.153,0,0,0,5.107,2.063" transform="translate(-145.859 -579.328)"/>
  <path id="Caminho_14" data-name="Caminho 14" class="cls-3" d="M269.043,600.694l-4.007-4.008-3.842,3.842a5.232,5.232,0,0,0,0,7.368L265.2,611.9l3.842-3.843a5.227,5.227,0,0,0,0-7.366" transform="translate(-182.469 -579.457)"/>
  <path id="Caminho_15" data-name="Caminho 15" class="cls-3" d="M234.995,600.522l-3.839-3.839-4.01,4.011a5.221,5.221,0,0,0,0,7.366l3.839,3.841,4.01-4.011a5.232,5.232,0,0,0,0-7.368" transform="translate(-187.021 -579.458)"/>
  <path id="Caminho_16" data-name="Caminho 16" class="cls-4" d="M294.514,604.819a6.991,6.991,0,0,1-2.216,5.241c-2.262,2.2-4.62,4.3-6.972,6.4a2.167,2.167,0,0,1-.954.472c-.039.01-.077.021-.116.029s-.085.014-.128.02a2.4,2.4,0,0,1-.341.027h-.023a2.535,2.535,0,0,1-1.536-.557c-2.333-2.083-4.673-4.163-6.919-6.34a6.758,6.758,0,0,1-2.245-5.233c0-.029,0-.058,0-.087a6,6,0,0,1,.389-2.114c.018-.052.039-.1.058-.156.013-.031.023-.062.036-.092a5.437,5.437,0,0,1,2.549-2.858,5.975,5.975,0,0,1,1.882-.692c.159-.032.318-.056.475-.073l.059,0c.166-.017.33-.024.493-.025.026,0,.051,0,.078,0s.059,0,.09,0c.077,0,.155.007.232.011a6,6,0,0,1,4.388,2.262,6.007,6.007,0,0,1,9.441.03c.071.092.142.185.209.28.036.052.071.106.107.16q.116.175.218.359l.038.065c.081.152.156.308.226.468.008.019.017.037.025.057.068.162.128.329.182.5l.021.066c.051.168.1.339.132.512.007.028.011.057.017.084.033.171.061.343.079.518,0,.036,0,.073.008.11.007.075.013.148.017.223s0,.147.006.22c0,.031,0,.06,0,.091Zm12.5-2.259-19.539-19.543a5.232,5.232,0,0,0-7.371,0l-15.7,15.7,4.007,4.008a5.227,5.227,0,0,1,0,7.366l-3.842,3.843L280.1,629.47a5.223,5.223,0,0,0,7.371,0l19.539-19.542a5.232,5.232,0,0,0,0-7.368" transform="translate(-181.837 -581.488)"/>
  <path id="Caminho_17" data-name="Caminho 17" class="cls-5" d="M247.749,594.023a2.658,2.658,0,1,0,2.659,2.659,2.662,2.662,0,0,0-2.659-2.659" transform="translate(-184.419 -579.814)"/>
  <path id="Caminho_18" data-name="Caminho 18" class="cls-6" d="M259.805,604.621l-6.1,3.487v10.457a1.467,1.467,0,0,1-2.934,0V607.258a1.468,1.468,0,0,1,.739-1.274l6.844-3.91a1.467,1.467,0,0,1,1.456,2.547m-10.085-.692a5.593,5.593,0,1,1,5.591-5.594,5.6,5.6,0,0,1-5.591,5.594m-1.01,14.636a1.466,1.466,0,0,1-2.933,0V608.108l-6.106-3.487a1.467,1.467,0,0,1,1.456-2.547l6.844,3.91a1.468,1.468,0,0,1,.739,1.274Zm16.406-8.658a5.23,5.23,0,0,1,0-7.367l3.842-3.843-15.534-15.536a5.226,5.226,0,0,0-7.37,0l-15.53,15.532,3.839,3.84a5.232,5.232,0,0,1,0,7.368l-4.01,4.01,15.7,15.705a5.226,5.226,0,0,0,7.37,0l15.7-15.7Z" transform="translate(-186.389 -581.469)"/>
  <path id="Caminho_19" data-name="Caminho 19" class="cls-7" d="M215.239,612l6.909-6.909a.884.884,0,1,0-1.25-1.25l-5.658,5.658v-4.535l3.823-3.823a.884.884,0,0,0-1.251-1.25l-2.572,2.572v-4.737a.884.884,0,0,0-1.769,0V602.5l-2.6-2.6a.884.884,0,0,0-1.251,1.25L213.47,605v4.533l-5.689-5.689a.885.885,0,0,0-1.252,1.25l6.941,6.94v4.389c.293.026.585.05.884.05s.592-.025.884-.051Z" transform="translate(-189.609 -579.436)"/>
  <path id="Caminho_20" data-name="Caminho 20" class="cls-8" d="M226.7,608.428c0,.037,0,.075,0,.112a10.075,10.075,0,0,1-.376,2.73c-.018.069-.037.136-.056.2-.012.04-.023.08-.035.119a6.893,6.893,0,0,1-1.922,3.116,10.282,10.282,0,0,1-15.816.21,6.909,6.909,0,0,1-1.315-1.585c-.069-.118-.137-.238-.2-.361-.036-.069-.07-.138-.1-.208-.075-.152-.145-.306-.212-.464-.011-.028-.024-.056-.035-.083q-.119-.3-.219-.606l-.024-.073c-.066-.21-.125-.425-.177-.644-.007-.028-.014-.057-.019-.085-.05-.216-.093-.438-.128-.662-.006-.035-.01-.073-.016-.108-.032-.22-.059-.443-.076-.669,0-.048-.006-.1-.009-.142-.006-.1-.012-.191-.016-.289s0-.189-.006-.283c0-.04,0-.078,0-.118,0-.014,0-.027,0-.042l0-.061c0-.109-.032-.211-.032-.321a10.3,10.3,0,0,1,.494-3.01c.052-.183.107-.364.168-.541.117-.32.245-.629.391-.933a9.9,9.9,0,0,1,.548-1.01c.107-.17.207-.34.324-.5.087-.126.154-.265.248-.388,2.189-2.834,4.471-5.546,6.748-8.258a1.956,1.956,0,0,1,.923-.61c.037-.012.075-.027.112-.037s.082-.018.124-.025a1.694,1.694,0,0,1,.33-.036h.023a1.666,1.666,0,0,1,.32.036,1.975,1.975,0,0,1,1.167.682c2.258,2.688,4.522,5.376,6.7,8.185.128.166.227.355.346.528.056.08.107.163.16.245a10.218,10.218,0,0,1,.737,1.357c.074.161.146.321.212.486a9.738,9.738,0,0,1,.359,1.158c.077.289.156.575.209.873.035.218.045.449.068.673a10.261,10.261,0,0,1,.113,1.125c0,.106-.028.2-.032.31Zm5-5.7,4.01-4.011-15.7-15.7a5.226,5.226,0,0,0-7.371,0L193.1,602.553a5.222,5.222,0,0,0,0,7.368l19.539,19.543a5.232,5.232,0,0,0,7.371,0l15.531-15.532-3.839-3.841a5.221,5.221,0,0,1,0-7.366" transform="translate(-191.574 -581.489)"/>
</svg>
